<mxfile host="app.diagrams.net" modified="2021-03-13T03:25:29.269Z" agent="5.0 (Windows NT 10.0; Win64; x64) AppleWebKit/537.36 (KHTML, like Gecko) Chrome/80.0.3987.163 Safari/537.36" etag="OZMbVc3_su7FB-d17aQb" version="14.4.8" type="github">
  <diagram id="JHVMXRFhgB0nyaqlNYHq" name="Page-1">
    <mxGraphModel dx="1038" dy="549" grid="1" gridSize="10" guides="1" tooltips="1" connect="1" arrows="1" fold="1" page="1" pageScale="1" pageWidth="827" pageHeight="1169" math="0" shadow="0">
      <root>
        <mxCell id="0" />
        <mxCell id="1" parent="0" />
      </root>
    </mxGraphModel>
  </diagram>
</mxfile>
